<svg xmlns="http://www.w3.org/2000/svg" xmlns:xlink="http://www.w3.org/1999/xlink" xml:space="preserve" version="1.1" style="shape-rendering:geometricPrecision;text-rendering:geometricPrecision;image-rendering:optimizeQuality;" viewBox="0 0 5.744 7.1850000000000005" x="0px" y="0px" fill-rule="evenodd" clip-rule="evenodd"><defs><style type="text/css">
   
    .fil0 {fill:black;fill-rule:nonzero}
   
  </style></defs><g><path class="fil0" d="M3.492 3.311l2.214 2.215c0.051,0.051 0.051,0.133 0,0.184 -0.051,0.051 -0.133,0.051 -0.184,0l-2.215 -2.214 -0.908 0.908 -0.066 -0.727c-0.001,-0.033 -0.013,-0.066 -0.038,-0.091l-1.384 -1.384 0.153 -0.154 1.138 -1.137 1.385 1.383c0.02,0.021 0.048,0.035 0.08,0.038l0.738 0.067 -0.913 0.912zm-2.815 -1.244l1.39 -1.39 -0.061 -0.677 -2.006 2.006 0.677 0.061z"/></g><text x="0" y="20.748" fill="#000000" font-size="5px" font-weight="bold" font-family="'Helvetica Neue', Helvetica, Arial-Unicode, Arial, Sans-serif">Created by Nociconist</text><text x="0" y="25.748" fill="#000000" font-size="5px" font-weight="bold" font-family="'Helvetica Neue', Helvetica, Arial-Unicode, Arial, Sans-serif">from the Noun Project</text></svg>